<?xml version="1.0" encoding="UTF-8"?>
<!DOCTYPE svg PUBLIC "-//W3C//DTD SVG 1.1//EN" "http://www.w3.org/Graphics/SVG/1.1/DTD/svg11.dtd">
<svg xmlns="http://www.w3.org/2000/svg" version="1.1" width="1200px" height="1200px" style="shape-rendering:geometricPrecision; text-rendering:geometricPrecision; image-rendering:optimizeQuality; fill-rule:evenodd; clip-rule:evenodd" xmlns:xlink="http://www.w3.org/1999/xlink">
<g><path style="opacity:1" fill="#fefffe" d="M 573.5,364.5 C 579.699,366.182 585.366,369.015 590.5,373C 610.603,389.104 631.27,404.438 652.5,419C 671.216,431.24 691.55,439.573 713.5,444C 813.835,454.222 912.835,471.889 1010.5,497C 1030.42,502.53 1050.09,508.864 1069.5,516C 1090.14,526.318 1110.8,536.651 1131.5,547C 1142.15,552.976 1151.65,560.476 1160,569.5C 1161.94,573.048 1163.61,576.714 1165,580.5C 1165.65,583.594 1165.32,586.594 1164,589.5C 1161.5,592 1159,594.5 1156.5,597C 1149.08,600.917 1141.41,604.25 1133.5,607C 1135.63,608.103 1137.96,608.603 1140.5,608.5C 1148.11,606.949 1155.77,606.449 1163.5,607C 1167.88,611.466 1168.38,616.299 1165,621.5C 1162.2,625.299 1159.04,628.799 1155.5,632C 1131.17,647.502 1106.5,662.502 1081.5,677C 980.428,730.684 872.595,754.518 758,748.5C 744.941,748.635 731.941,747.969 719,746.5C 704.452,756.865 689.285,766.365 673.5,775C 646.12,792.706 620.787,813.039 597.5,836C 593.376,837.056 589.71,836.222 586.5,833.5C 582.285,827.905 580.285,821.572 580.5,814.5C 582.776,798.183 584.943,781.85 587,765.5C 589.207,754.211 593.373,743.711 599.5,734C 564.729,720.743 529.729,708.076 494.5,696C 459.636,686.534 424.636,677.534 389.5,669C 359.282,661.241 328.615,656.408 297.5,654.5C 283.038,654.83 268.704,656.33 254.5,659C 235.115,665.128 215.782,671.461 196.5,678C 149.979,689.63 103.312,700.63 56.5,711C 47.8333,711.667 39.1667,711.667 30.5,711C 29.376,710.751 28.376,710.251 27.5,709.5C 30.7563,702.141 32.923,694.475 34,686.5C 36.06,681.38 38.3933,676.38 41,671.5C 54.4216,652.324 68.0882,633.324 82,614.5C 86.6444,607.063 89.8111,599.063 91.5,590.5C 90.8282,585.478 89.9949,580.478 89,575.5C 76.4838,550.635 64.6504,525.468 53.5,500C 47.3161,483.73 44.3161,466.897 44.5,449.5C 59.2275,452.687 73.5608,457.187 87.5,463C 139.955,483.894 192.621,504.228 245.5,524C 281.077,532.986 317.077,534.986 353.5,530C 404.447,517.351 455.113,503.684 505.5,489C 524.108,483.278 543.108,479.612 562.5,478C 565.362,477.73 568.028,476.896 570.5,475.5C 567.607,468.482 566.107,461.148 566,453.5C 564.821,425.74 565.821,398.074 569,370.5C 570.332,368.34 571.832,366.34 573.5,364.5 Z M 1045.5,562.5 C 1062.65,561.481 1070.48,569.481 1069,586.5C 1061.63,600.967 1051.13,603.8 1037.5,595C 1028.16,581.186 1030.83,570.353 1045.5,562.5 Z"/></g>
</svg>
